<svg version="1.0" xmlns="http://www.w3.org/2000/svg" xmlns:xlink="http://www.w3.org/1999/xlink" width="100%" height="100%" viewBox="0 0 340.000000 250.000000" preserveAspectRatio="xMidYMid meet" color-interpolation-filters="sRGB" style="margin: auto;"> <rect x="0" y="0" width="100%" height="100%" fill="transparent" fill-opacity="1" class="background"></rect> <rect x="0" y="0" width="100%" height="100%" fill-opacity="1" class="watermarklayer"></rect> <g fill="#a8c196" class="mojosvg mojo-g" transform="translate(71.86203002929688,88.23450469970703)"><g><g class="tp-name"><g transform="translate(0, 0)"><g data-gra="path-name" fill="#566e57" transform="translate(0,3)"><g transform="scale(1)"><g transform="translate(-1.5, 64.7254981699878)"><path d="M1.5 2.81L10.38 2.81 34.42-59.58 25.53-59.58 1.5 2.81Z" data-index="1" data-main="1" data-type="0"></path></g></g></g></g><g transform="translate(34.91999816894531, 0)"><g data-gra="path-name" fill="#a8c196" transform="translate(0,3)"><g transform="scale(1)"><path d="M44.15-58.18L47.14-51.82L35.36-45.46L45.74-39.10L41.44-32.74L31.05-39.10L29.74-26.28L22.45-26.28L23.76-39.19L11.88-32.74L8.89-39.10L20.67-45.46L10.29-51.82L14.68-58.18L25.07-51.82L26.38-64.73L33.77-64.73L32.46-51.82L44.15-58.18Z" transform="translate(-8.885725904839367, 64.7254981699878)"></path></g></g></g><g transform="translate(75.17538653820111, 0)"><g data-gra="path-name" fill="#a8c196" transform="translate(0,3)"><g transform="scale(1)"><path d="M19.83-18.80L36.01-47.70L45.93-47.70L19.17 0L16.65 0L0-47.70L9.82-47.70L19.83-18.80Z" transform="translate(0, 64.7254981699878)"></path></g></g></g><g transform="translate(123.10055937268667, 0)"><g data-gra="path-name" fill="#a8c196" transform="translate(0,3)"><g transform="scale(1)"><path d="M44.15-58.18L47.14-51.82L35.36-45.46L45.74-39.10L41.44-32.74L31.05-39.10L29.74-26.28L22.45-26.28L23.76-39.19L11.88-32.74L8.89-39.10L20.67-45.46L10.29-51.82L14.68-58.18L25.07-51.82L26.38-64.73L33.77-64.73L32.46-51.82L44.15-58.18Z" transform="translate(-8.885725904839367, 64.7254981699878)"></path></g></g></g><g transform="translate(163.3559477419425, 0)"><g data-gra="path-name" fill="#566e57" transform="translate(0,3)"><g transform="scale(1)"><g transform="translate(-1.5, 64.7254981699878)"><path d="M1.5 2.81L10.38 2.81 34.42-59.58 25.53-59.58 1.5 2.81Z" data-index="1" data-main="1" data-type="0"></path></g></g></g></g></g></g></g><defs v-gra="od"></defs></svg>
